<svg xmlns="http://www.w3.org/2000/svg" viewBox="0 0 64 64"><path d="M49.788,52.61c-4.036-1.722-7.563-4.624-10.004-8.259C37.328,40.725,35.997,36.378,36,32c-0.003-4.378,1.328-8.724,3.783-12.351c2.441-3.635,5.968-6.537,10.004-8.259l0.001,0l1.934-0.919l0.012-1.801l-1.947-0.957C45.814,5.76,41.278,4.9,36.798,5.104c-4.488,0.234-8.95,1.613-12.834,3.977c-3.914,2.332-7.17,5.745-9.467,9.717C12.219,22.791,11.018,27.4,11,32c0.018,4.6,1.219,9.209,3.497,13.202c2.297,3.972,5.553,7.385,9.466,9.717c3.884,2.364,8.346,3.742,12.834,3.977c4.48,0.204,9.017-0.656,12.99-2.609l0.001,0l2.107-0.956l-0.021-1.83L49.788,52.61z M37.184,53.933c-3.679-0.374-7.234-1.652-10.258-3.689c-3.022-2.034-5.571-4.749-7.289-7.919c-0.855-1.583-1.53-3.26-1.98-4.996C17.222,35.589,17.001,33.798,17,32c0.001-1.798,0.222-3.589,0.657-5.329c0.45-1.736,1.126-3.413,1.98-4.996c1.718-3.17,4.267-5.885,7.289-7.919c3.024-2.037,6.579-3.315,10.258-3.689c2.15-0.273,4.333-0.203,6.485,0.148c0,0-12.681,6.067-12.67,21.785c-0.011,15.734,12.67,21.785,12.67,21.785C41.518,54.137,39.335,54.206,37.184,53.933z"/></svg>